<svg width="100" height="100" viewBox="0 0 100 100" fill="none" xmlns="http://www.w3.org/2000/svg">
<path d="M50 70.8333C61.506 70.8333 70.8334 61.5059 70.8334 50C70.8334 38.4941 61.506 29.1667 50 29.1667C38.4941 29.1667 29.1667 38.4941 29.1667 50C29.1667 61.5059 38.4941 70.8333 50 70.8333Z" stroke="white" stroke-width="5" stroke-linecap="round" stroke-linejoin="round"/>
<path d="M50 4.16666V12.5" stroke="white" stroke-width="5" stroke-linecap="round" stroke-linejoin="round"/>
<path d="M50 87.5V95.8333" stroke="white" stroke-width="5" stroke-linecap="round" stroke-linejoin="round"/>
<path d="M17.5833 17.5833L23.5 23.5" stroke="white" stroke-width="5" stroke-linecap="round" stroke-linejoin="round"/>
<path d="M76.5 76.5L82.4167 82.4167" stroke="white" stroke-width="5" stroke-linecap="round" stroke-linejoin="round"/>
<path d="M4.16669 50H12.5" stroke="white" stroke-width="5" stroke-linecap="round" stroke-linejoin="round"/>
<path d="M87.5 50H95.8333" stroke="white" stroke-width="5" stroke-linecap="round" stroke-linejoin="round"/>
<path d="M17.5833 82.4167L23.5 76.5" stroke="white" stroke-width="5" stroke-linecap="round" stroke-linejoin="round"/>
<path d="M76.5 23.5L82.4167 17.5833" stroke="white" stroke-width="5" stroke-linecap="round" stroke-linejoin="round"/>
<path d="M80.5383 51.5753C80.3096 57.281 78.4607 62.8036 75.2079 67.4969C71.955 72.1901 67.4328 75.8599 62.1705 78.0769C56.9081 80.2938 51.1231 80.9662 45.4925 80.0153C39.862 79.0645 34.6186 76.5297 30.3761 72.7076C26.1335 68.8855 23.0672 63.9342 21.5359 58.4331C20.0047 52.9319 20.0718 47.1084 21.7295 41.644C23.3871 36.1796 26.5668 31.3003 30.8963 27.577C35.2258 23.8538 40.5262 21.4405 46.1772 20.6197C43.0872 25.2907 41.7764 30.9156 42.4831 36.4714C43.1898 42.0272 45.8672 47.1449 50.0282 50.8935C54.1892 54.6421 59.5575 56.7728 65.1567 56.8979C70.7559 57.023 76.214 55.1343 80.5383 51.5753Z" stroke="white" stroke-width="5" stroke-linecap="round" stroke-linejoin="round"/>
</svg>
